<?xml version="1.0" standalone="no"?>
<!DOCTYPE svg PUBLIC "-//W3C//DTD SVG 20010904//EN"
 "http://www.w3.org/TR/2001/REC-SVG-20010904/DTD/svg10.dtd">
<svg version="1.0" xmlns="http://www.w3.org/2000/svg"
 width="700.000000pt" height="700.000000pt" viewBox="0 0 700.000000 700.000000"
 preserveAspectRatio="xMidYMid meet">
<metadata>
Created by potrace 1.11, written by Peter Selinger 2001-2013
</metadata>
<g transform="translate(0.000000,700.000000) scale(0.100000,-0.100000)"
fill="#000000" stroke="none">
<path d="M590 6984 c-80 -28 -143 -85 -183 -164 l-22 -45 0 -3275 0 -3275 23
-46 c41 -82 116 -145 202 -168 35 -9 522 -11 2140 -9 l2095 3 66 22 c70 24
172 85 227 137 75 70 150 212 168 317 4 24 8 930 9 2014 1 1727 0 1973 -14
1997 -14 25 -34 39 -73 52 -16 5 -18 19 -18 105 l0 99 35 12 c74 24 70 -31 70
878 0 919 0 915 -67 1045 -70 135 -171 223 -326 285 l-67 27 -2110 2 c-1891 2
-2115 1 -2155 -13z"/>
<path d="M6080 6981 c-139 -44 -239 -149 -282 -296 -13 -43 -15 -437 -14
-2990 l2 -2940 98 -210 c54 -116 111 -239 128 -275 108 -236 110 -238 143
-254 43 -21 63 -20 100 2 24 15 47 56 119 213 49 107 102 221 117 254 15 33
49 105 76 160 l48 100 3 891 2 892 -29 31 c-16 17 -38 31 -50 31 -25 0 -23 -7
-26 109 l-1 94 37 15 c76 30 70 -146 67 1977 l-3 1900 -34 70 c-54 109 -149
194 -256 227 -57 18 -186 18 -245 -1z"/>
</g>
</svg>
