<svg id="Layer_1" enable-background="new 0 0 512 512" height="512" viewBox="0 0 512 512" width="512" xmlns="http://www.w3.org/2000/svg"><g><g><path d="m430.173 58.979h46.164v34.4h-46.164z" fill="#f2fdff"/><path d="m458.337 58.979h18v34.399h-18z" fill="#d5e0f2"/><path d="m476.337 58.979h-46.164v-27.897c0-12.748 10.335-23.082 23.082-23.082 12.748 0 23.082 10.334 23.082 23.082z" fill="#ff5876"/><path d="m453.255 8c-3.193 0-6.234.649-9 1.821 8.276 3.508 14.082 11.706 14.082 21.261v27.897h18v-27.897c0-12.748-10.334-23.082-23.082-23.082z" fill="#e6485d"/><path d="m453.255 504 23.082-50.14h-46.164z" fill="#ffe0cc"/><path d="m458.337 453.86-14.082 30.589 9 19.551 23.082-50.14z" fill="#ffceb3"/><path d="m430.173 93.378h46.164v360.482h-46.164z" fill="#ffcf4d"/><path d="m458.337 93.378h18v360.482h-18z" fill="#ffb629"/><path d="m80.819 8h-30.156c-8.284 0-15 6.716-15 15v466c0 8.284 6.716 15 15 15h30.157v-496z" fill="#ffcf4d"/><path d="m62.819 8h18v496h-18z" fill="#ffb629"/><path d="m345.995 504h-265.176v-496h265.176c19.33 0 35 15.67 35 35v426c0 19.33-15.67 35-35 35z" fill="#ff5876"/><path d="m345.995 8h-18c19.33 0 35 15.67 35 35v426c0 19.33-15.67 35-35 35h18c19.33 0 35-15.67 35-35v-426c0-19.33-15.67-35-35-35z" fill="#e6485d"/><path d="m310.235 187.126h-157.28c-5.523 0-10-4.477-10-10v-82.83c0-5.523 4.477-10 10-10h157.28c5.523 0 10 4.477 10 10v82.83c0 5.522-4.477 10-10 10z" fill="#f2fdff"/><path d="m310.235 84.295h-18c5.523 0 10 4.477 10 10v82.83c0 5.523-4.477 10-10 10h18c5.523 0 10-4.477 10-10v-82.83c0-5.523-4.477-10-10-10z" fill="#d5e0f2"/></g><g><g><path d="m346.171 0h-295.91c-12.431 0-22.544 10.113-22.544 22.544v466.912c0 12.431 10.113 22.544 22.544 22.544h295.91c23.48 0 42.583-19.103 42.583-42.583v-282.426c0-4.15-3.365-7.515-7.515-7.515s-7.515 3.365-7.515 7.515v282.426c0 15.193-12.361 27.554-27.554 27.554h-258.179v-95.485c0-4.15-3.365-7.515-7.515-7.515s-7.515 3.365-7.515 7.515v95.485h-22.7c-4.144 0-7.515-3.371-7.515-7.515v-466.912c0-4.144 3.371-7.515 7.515-7.515h22.701v356.397c0 4.15 3.364 7.515 7.515 7.515s7.515-3.365 7.515-7.515v-356.397h258.18c15.193 0 27.554 12.361 27.554 27.554v114.349c0 4.15 3.365 7.515 7.515 7.515s7.515-3.365 7.515-7.515v-114.349c-.002-23.48-19.104-42.583-42.585-42.583z"/><path d="m152.754 76.445c-9.668 0-17.534 7.866-17.534 17.534v82.992c0 9.668 7.866 17.534 17.534 17.534h157.588c9.668 0 17.534-7.866 17.534-17.534v-82.992c0-9.668-7.866-17.534-17.534-17.534zm160.092 17.534v82.992c0 1.381-1.124 2.505-2.505 2.505h-157.587c-1.381 0-2.505-1.124-2.505-2.505v-82.992c0-1.381 1.124-2.505 2.505-2.505h157.588c1.381 0 2.504 1.124 2.504 2.505z"/><path d="m453.641 0c-16.896 0-30.642 13.746-30.642 30.642v423.605c.01 1.082.244 2.156.689 3.142l23.127 50.238c2.416 5.739 11.237 5.738 13.653 0l23.127-50.238c.444-.987.68-2.06.688-3.142v-124.501c0-4.15-3.365-7.515-7.515-7.515s-7.515 3.364-7.515 7.515v116.986h-31.225v-346.158h31.225v199.113c0 4.15 3.365 7.515 7.515 7.515s7.515-3.365 7.515-7.515v-269.045c0-16.896-13.746-30.642-30.642-30.642zm0 15.029c8.609 0 15.613 7.004 15.613 15.612v20.436h-31.225v-20.435c0-8.609 7.004-15.613 15.612-15.613zm0 471.486-11.395-24.753h22.789zm-15.612-400.97v-19.437h31.225v19.437z"/></g></g></g></svg>